<svg xmlns="http://www.w3.org/2000/svg" fill="none" viewBox="0 0 48 38">
  <path fill="#fff" d="M0 0h47.234v37.326H0z"/>
  <path opacity=".99" fill-rule="evenodd" clip-rule="evenodd" d="M29.451 10.024h-5.343v.015c-.985-.362-1.978-.644-3.005-.644-3.492 0-6.383 5.808-6.649 9.402-.038.526-.102 1.096-.168 1.684-.383 3.427-.838 7.495 3.12 7.495.903 0 1.986-.992 3.17-2.495 0 .048-.002.07 0 .071.003 0 .018-.058.067-.156.126-.161.253-.328.38-.5.4-.383 1.155-.836 2.574-1.07h5.264c1.685.23 2.572.71 3.04 1.074 1.534 1.997 2.94 3.33 3.957 3.11 4.139-.897 3.465-5.852 2.695-9.196-.77-3.344-3.149-9.522-6.338-9.522-.934 0-1.854.315-2.764.732zm-7.547 13.802h-.113l-.139.199c.08-.066.164-.133.252-.2zM22.4 14.5a.836.836 0 00-1.672 0v1.817h-1.784a.836.836 0 100 1.672h1.783l-.001 1.615a.836.836 0 001.672 0V17.99h1.855a.836.836 0 100-1.672h-1.854L22.4 14.5zm8.398-.701a.912.912 0 100 1.824.912.912 0 000-1.824zm1.52 3.347a.912.912 0 111.824 0 .912.912 0 01-1.825 0zm-1.52 1.517a.912.912 0 100 1.824.912.912 0 000-1.824zm-3.345-1.517a.912.912 0 111.824 0 .912.912 0 01-1.824 0z" fill="#555"/>
</svg>
