<svg xmlns="http://www.w3.org/2000/svg" fill="none" viewBox="0 0 44 28">
  <path fill="#4166EB" d="M0 0h43.185v27.695H0z"/>
  <path d="M30.904 13.41c-.87-3.93-2.179-6.029-4.12-6.602a4.391 4.391 0 00-1.257-.178c-.562 0-1.051.137-1.569.282-.624.175-1.333.374-2.367.374-1.033 0-1.742-.198-2.368-.373-.518-.146-1.007-.283-1.567-.283a4.745 4.745 0 00-1.301.177c-1.931.571-3.24 2.669-4.122 6.601-.949 4.232-.482 6.904 1.31 7.524.245.087.504.131.764.132 1.227 0 2.211-1.022 2.884-1.859.76-.947 1.649-1.427 4.4-1.427 2.458 0 3.476.333 4.354 1.427.552.688 1.074 1.17 1.595 1.473.693.402 1.385.492 2.057.26 1.058-.36 1.665-1.315 1.804-2.838.105-1.168-.057-2.702-.497-4.69zm-11.28-.22H18.31v1.312a.656.656 0 11-1.311 0V13.19h-1.313a.656.656 0 010-1.312H17v-1.312a.656.656 0 111.311 0v1.312h1.312a.655.655 0 110 1.312zm3.443.164a.82.82 0 110-1.64.82.82 0 010 1.64zm1.804 1.804a.82.82 0 110-1.639.82.82 0 010 1.64zm0-3.608a.82.82 0 110-1.638.82.82 0 010 1.638zm1.804 1.804a.82.82 0 110-1.64.82.82 0 010 1.64z" fill="#fff"/>
</svg>
