<svg xmlns="http://www.w3.org/2000/svg" fill="none" viewBox="0 0 64 41">
  <path fill="#4166EB" d="M0 0h63.916v40.989H0z"/>
  <path d="M45.74 19.849c-1.288-5.82-3.225-8.925-6.098-9.773a6.501 6.501 0 00-1.86-.263c-.832 0-1.556.203-2.323.418-.923.259-1.973.553-3.502.553-1.53 0-2.58-.294-3.505-.553-.767-.215-1.491-.418-2.32-.418a7.024 7.024 0 00-1.926.262c-2.858.845-4.794 3.95-6.1 9.77-1.404 6.264-.713 10.218 1.938 11.136.364.128.746.194 1.131.195 1.816 0 3.273-1.513 4.268-2.751 1.124-1.402 2.44-2.113 6.514-2.113 3.637 0 5.143.493 6.444 2.113.817 1.018 1.59 1.73 2.36 2.179 1.025.596 2.05.728 3.044.387 1.567-.535 2.465-1.948 2.67-4.202.156-1.728-.085-3.998-.736-6.94zm-16.696-.327h-1.942v1.942a.971.971 0 01-1.942 0v-1.942h-1.942a.971.971 0 010-1.942h1.942v-1.94a.971.971 0 111.942 0v1.941h1.942a.97.97 0 110 1.942zm5.097.243a1.213 1.213 0 110-2.426 1.213 1.213 0 010 2.426zm2.67 2.67a1.213 1.213 0 110-2.426 1.213 1.213 0 010 2.426zm0-5.34a1.214 1.214 0 110-2.428 1.214 1.214 0 010 2.428zm2.67 2.67a1.213 1.213 0 110-2.426 1.213 1.213 0 010 2.426z" fill="#fff"/>
</svg>
