<svg xmlns="http://www.w3.org/2000/svg" fill="none" viewBox="0 0 37 30">
  <path fill="#fff" d="M0 0h37v29.239H0z"/>
  <path opacity=".99" fill-rule="evenodd" clip-rule="evenodd" d="M23.07 7.852h-4.185v.012c-.771-.284-1.55-.505-2.354-.505-2.736 0-5 4.55-5.208 7.365-.03.413-.08.859-.132 1.32-.3 2.684-.657 5.87 2.443 5.87.708 0 1.556-.776 2.484-1.953-.001.038-.003.055-.001.055.003 0 .014-.045.052-.12.1-.128.2-.26.3-.395.315-.3.906-.655 2.017-.837h4.118c1.326.18 2.023.558 2.388.845 1.2 1.562 2.302 2.605 3.097 2.433 3.242-.704 2.715-4.585 2.111-7.204-.603-2.62-2.466-7.46-4.965-7.46-.73 0-1.452.247-2.164.574zm-5.912 10.812h-.088a40.59 40.59 0 01-.109.155c.063-.052.128-.104.197-.155zm.389-7.304a.655.655 0 00-1.31 0v1.423h-1.398a.655.655 0 100 1.31h1.397v1.265a.655.655 0 001.31 0v-1.266h1.451a.655.655 0 100-1.31h-1.45V11.36zm6.577-.55a.714.714 0 100 1.43.714.714 0 000-1.43zm1.19 2.622a.715.715 0 111.43 0 .715.715 0 01-1.43 0zm-1.19 1.188a.714.714 0 100 1.43.714.714 0 000-1.43zm-2.62-1.188a.714.714 0 111.43 0 .714.714 0 01-1.43 0z" fill="#555"/>
</svg>
