<svg xmlns="http://www.w3.org/2000/svg" fill="none" viewBox="0 0 44 49">
  <path d="M43.985 0v11.913L32.24 0h11.745zM11.744 0L0 11.913V0h11.744z" fill="#4166EB"/>
  <path d="M21.992 30.324l13.63 13.826a21.684 21.684 0 01-13.63 4.802 21.684 21.684 0 01-13.63-4.802l13.63-13.826z" fill="#17D1BC"/>
  <path d="M42.942 33.43a22.362 22.362 0 01-5.042 8.61L21.993 25.898 6.086 42.032a22.294 22.294 0 01-5.043-8.61l20.95-21.26 20.95 21.269z" fill="#FF6263"/>
  <path d="M43.985 16.337v10.294a22.01 22.01 0 01-.227 3.201L21.992 7.755.227 29.832A21.98 21.98 0 010 26.631V16.337L16.098 0h11.78l16.107 16.337z" fill="#FDCC03"/>
</svg>
