<svg xmlns="http://www.w3.org/2000/svg" fill="none" viewBox="0 0 30 33">
  <path d="M29.488 0v7.986L21.615 0h7.873zM7.874 0L0 7.986V0h7.874z" fill="#4166EB"/>
  <path d="M14.744 20.327l9.138 9.269a14.537 14.537 0 01-9.138 3.219 14.537 14.537 0 01-9.138-3.22l9.138-9.268z" fill="#17D1BC"/>
  <path d="M28.789 22.411a14.99 14.99 0 01-3.38 5.772L14.743 17.36 4.08 28.177A14.947 14.947 0 01.7 22.405L14.743 8.153 28.79 22.41z" fill="#FF6263"/>
  <path d="M29.488 10.953v6.9c0 .728-.049 1.444-.152 2.147L14.744 5.199.152 19.999A14.735 14.735 0 010 17.855v-6.901L10.792 0h7.898l10.798 10.953z" fill="#FDCC03"/>
</svg>
