<svg xmlns="http://www.w3.org/2000/svg" fill="none" viewBox="0 0 35 39">
  <path d="M34.455 0v9.332L25.255 0h9.2zM9.2 0L0 9.332V0h9.2z" fill="#4166EB"/>
  <path d="M17.227 23.754l10.678 10.83a16.985 16.985 0 01-10.678 3.762A16.985 16.985 0 016.55 34.584l10.677-10.83z" fill="#17D1BC"/>
  <path d="M33.638 26.187a17.517 17.517 0 01-3.95 6.745l-12.46-12.646-12.46 12.639a17.463 17.463 0 01-3.95-6.745l16.41-16.653 16.41 16.66z" fill="#FF6263"/>
  <path d="M34.455 12.797v8.064c0 .85-.057 1.686-.178 2.507L17.227 6.074.177 23.368A17.218 17.218 0 010 20.861v-8.064L12.61 0h9.228l12.617 12.797z" fill="#FDCC03"/>
</svg>
